<svg aria-hidden="true" style="position:absolute;width:0;height:0;overflow:hidden" xmlns="http://www.w3.org/2000/svg"><defs><symbol id="close-11" viewBox="0 0 32 32"><path d="M32 3.22 28.78 0 16 12.78 3.22 0 0 3.22 12.78 16 0 28.78 3.22 32 16 19.22 28.78 32 32 28.78 19.22 16 32 3.22z"/></symbol><symbol id="close-18" viewBox="0 0 32 32"><path d="M26.67 7.3 24.7 5.33l-7.81 7.81-7.8-7.8L7.1 7.3l7.8 7.81-7.8 7.8 1.97 1.98 7.8-7.8 7.82 7.8 1.97-1.97-7.81-7.8 7.8-7.82z"/></symbol><symbol id="close" viewBox="0 0 32 32"><path fill="#fff" style="fill:var(--color1, #fff)" d="M32 16a16 16 0 1 1-32 0 16 16 0 0 1 32 0z"/><path fill="none" stroke="#000" style="stroke:var(--color2, #000)" stroke-width="1.07" d="M31.47 16A15.47 15.47 0 1 1 .53 16a15.47 15.47 0 0 1 30.94 0z"/><path style="fill:var(--color2, #000)" d="M22.4 10.78 21.22 9.6l-4.69 4.68-4.68-4.68-1.18 1.18 4.68 4.69-4.68 4.68 1.18 1.18 4.68-4.68 4.69 4.68 1.18-1.18-4.68-4.68 4.68-4.69z"/></symbol></defs></svg>